<svg width="425" height="425" viewBox="0 0 425 425" fill="none" xmlns="http://www.w3.org/2000/svg">
<rect width="425" height="425" rx="10" fill="#D32B2A"/>
<rect x="34" y="212.578" width="252.547" height="7.51318" transform="rotate(-45 34 212.578)" fill="white"/>
<rect x="89.3008" y="193.303" width="174.34" height="7.51318" transform="rotate(-45 89.3008 193.303)" fill="white"/>
<rect x="126.156" y="193.224" width="120.764" height="7.51318" transform="rotate(-45 126.156 193.224)" fill="white"/>
<rect x="144.66" y="212.049" width="71.0808" height="7.51318" transform="rotate(-45 144.66 212.049)" fill="white"/>
<rect x="182.129" y="212.068" width="44.2753" height="7.51318" transform="rotate(-45 182.129 212.068)" fill="white"/>
<rect x="226.489" y="256.446" width="44.5377" height="7.51318" transform="rotate(-45 226.489 256.446)" fill="white"/>
<rect x="227.587" y="219.929" width="13.1533" height="7.51318" transform="rotate(-45 227.587 219.929)" fill="white"/>
<rect x="225.974" y="294.949" width="120.764" height="7.51318" transform="rotate(-45 225.974 294.949)" fill="white"/>
<rect width="238.671" height="7.72137" transform="matrix(-0.707107 -0.707107 -0.707107 0.707107 213.495 381.158)" fill="white"/>
<rect width="176.148" height="7.72137" transform="matrix(-0.707107 -0.707107 -0.707107 0.707107 218.013 349.281)" fill="white"/>
<rect width="176.148" height="7.72137" transform="matrix(-0.707107 -0.707107 -0.707107 0.707107 218.013 349.281)" fill="white"/>
<rect width="201.701" height="7.72137" transform="matrix(-0.707107 -0.707107 -0.707107 0.707107 237.36 330.471)" fill="white"/>
<rect width="200.974" height="7.72137" transform="matrix(-0.707107 -0.707107 -0.707107 0.707107 354.993 211.835)" fill="white"/>
<rect width="149.985" height="7.72137" transform="matrix(-0.707107 -0.707107 -0.707107 0.707107 318.56 212.965)" fill="white"/>
<rect width="96.7078" height="7.72137" transform="matrix(-0.707107 -0.707107 -0.707107 0.707107 280.945 212.527)" fill="white"/>
<rect width="45.2205" height="7.72137" transform="matrix(-0.707107 -0.707107 -0.707107 0.707107 245.602 212.543)" fill="white"/>
<rect width="95.4456" height="7.72137" transform="matrix(-0.707107 -0.707107 -0.707107 0.707107 218.302 274.777)" fill="white"/>
<rect width="68.6913" height="7.72137" transform="matrix(-0.707107 -0.707107 -0.707107 0.707107 236.912 255.946)" fill="white"/>
<rect width="7.59391" height="8.56673" transform="matrix(-0.707107 -0.707107 -0.707107 0.707107 81.408 211.942)" fill="white"/>
<rect width="112.975" height="7.72137" transform="matrix(-0.707107 -0.707107 -0.707107 0.707107 297.365 118.786)" fill="white"/>
<rect width="113.888" height="7.72137" transform="matrix(-0.707107 -0.707107 -0.707107 0.707107 387.524 208.944)" fill="white"/>
<rect x="207.941" y="386.491" width="252.532" height="7.51318" transform="rotate(-45 207.941 386.491)" fill="white"/>
</svg>
