<svg width="348" height="346" viewBox="0 0 348 346" fill="none" xmlns="http://www.w3.org/2000/svg">
<rect width="348" height="346" fill="#D32B2A"/>
<rect x="6.98486" y="172.38" width="235.297" height="7" transform="rotate(-45 6.98486 172.38)" fill="white"/>
<rect x="58.5083" y="154.422" width="162.432" height="7" transform="rotate(-45 58.5083 154.422)" fill="white"/>
<rect x="92.8457" y="154.348" width="112.516" height="7" transform="rotate(-45 92.8457 154.348)" fill="white"/>
<rect x="110.086" y="171.887" width="66.2257" height="7" transform="rotate(-45 110.086 171.887)" fill="white"/>
<rect x="144.996" y="171.905" width="41.2511" height="7" transform="rotate(-45 144.996 171.905)" fill="white"/>
<rect x="186.326" y="213.252" width="41.4956" height="7" transform="rotate(-45 186.326 213.252)" fill="white"/>
<rect x="187.35" y="179.229" width="12.2549" height="7" transform="rotate(-45 187.35 179.229)" fill="white"/>
<rect x="185.846" y="249.125" width="112.516" height="7" transform="rotate(-45 185.846 249.125)" fill="white"/>
<rect width="222.369" height="7.19396" transform="matrix(-0.707107 -0.707107 -0.707107 0.707107 174.22 329.446)" fill="white"/>
<rect width="164.116" height="7.19396" transform="matrix(-0.707107 -0.707107 -0.707107 0.707107 178.429 299.746)" fill="white"/>
<rect width="164.116" height="7.19396" transform="matrix(-0.707107 -0.707107 -0.707107 0.707107 178.429 299.746)" fill="white"/>
<rect width="187.924" height="7.19396" transform="matrix(-0.707107 -0.707107 -0.707107 0.707107 196.454 282.221)" fill="white"/>
<rect width="187.247" height="7.19396" transform="matrix(-0.707107 -0.707107 -0.707107 0.707107 306.053 171.688)" fill="white"/>
<rect width="139.741" height="7.19396" transform="matrix(-0.707107 -0.707107 -0.707107 0.707107 272.108 172.74)" fill="white"/>
<rect width="90.1023" height="7.19396" transform="matrix(-0.707107 -0.707107 -0.707107 0.707107 237.062 172.332)" fill="white"/>
<rect width="42.1317" height="7.19396" transform="matrix(-0.707107 -0.707107 -0.707107 0.707107 204.134 172.348)" fill="white"/>
<rect width="88.9263" height="7.19396" transform="matrix(-0.707107 -0.707107 -0.707107 0.707107 178.698 230.33)" fill="white"/>
<rect width="63.9994" height="7.19396" transform="matrix(-0.707107 -0.707107 -0.707107 0.707107 196.037 212.785)" fill="white"/>
<rect width="7.07521" height="7.98158" transform="matrix(-0.707107 -0.707107 -0.707107 0.707107 51.1548 171.788)" fill="white"/>
<rect width="105.259" height="7.19396" transform="matrix(-0.707107 -0.707107 -0.707107 0.707107 252.36 84.9944)" fill="white"/>
<rect width="106.109" height="7.19396" transform="matrix(-0.707107 -0.707107 -0.707107 0.707107 336.361 168.994)" fill="white"/>
<rect x="169.045" y="334.414" width="235.283" height="7" transform="rotate(-45 169.045 334.414)" fill="white"/>
</svg>
